<svg xmlns="http://www.w3.org/2000/svg" version="1.1" xmlns:xlink="http://www.w3.org/1999/xlink" xmlns:svgjs="http://svgjs.dev/svgjs" width="1440" height="560" preserveAspectRatio="none" viewBox="0 0 1440 560">
    <g mask="url(&quot;#SvgjsMask1218&quot;)" fill="none">
        <rect width="1440" height="560" x="0" y="0" fill="url(&quot;#SvgjsLinearGradient1219&quot;)"></rect>
        <path d="M397.48 5.31L452.37 5.31L452.37 60.2L397.48 60.2z" stroke="rgba(0, 21, 255, 1)"></path>
        <path d="M350.41 392.53a21.13 21.13 0 1 0 41.78-6.32z" stroke="rgba(0, 3, 40, 1)"></path>
        <path d="M933.7 153.44 a24.3 24.3 0 1 0 48.6 0 a24.3 24.3 0 1 0 -48.6 0z" fill="rgba(0, 3, 40, 1)"></path>
        <path d="M1243.47 205.35L1279.2 205.35L1279.2 231.13L1243.47 231.13z" fill="rgba(0, 0, 0, 1)"></path>
        <path d="M1166.57 120.51L1173.87 120.51L1173.87 127.81L1166.57 127.81z" fill="#e73635"></path>
        <path d="M300.36 218.63 a4.91 4.91 0 1 0 9.82 0 a4.91 4.91 0 1 0 -9.82 0z" fill="rgba(0, 21, 255, 1)"></path>
        <path d="M275.81 148.15L322.87 148.15L322.87 195.21L275.81 195.21z" fill="#e73635"></path>
        <path d="M620.72 507.54 a11.39 11.39 0 1 0 22.78 0 a11.39 11.39 0 1 0 -22.78 0z" stroke="rgba(31, 34, 73, 1)"></path>
        <path d="M84.56 255.6L86.43 255.6L86.43 255.95L84.56 255.95z" fill="rgba(0, 0, 0, 1)"></path>
        <path d="M125.64 441.89L169.81 441.89L169.81 486.06L125.64 486.06z" fill="#e73635"></path>
        <path d="M352.19 361.27L370.91 361.27L370.91 407.28L352.19 407.28z" fill="#e73635"></path>
        <path d="M1436.55 568.83a31.91 31.91 0 1 0-36.11-52.63z" fill="rgba(0, 3, 40, 1)"></path>
        <path d="M1238.64 325.56L1255.04 325.56L1255.04 341.96L1238.64 341.96z" fill="#e73635"></path>
        <path d="M847.75 503.17L857.36 503.17L857.36 512.78L847.75 512.78z" stroke="#e73635"></path>
        <path d="M752.26 391.41a8.02 8.02 0 1 0 14.41-7.04z" fill="#e73635"></path>
        <path d="M266.27 61.19a29.52 29.52 0 1 0-48.02-34.35z" fill="rgba(31, 34, 73, 1)"></path>
        <path d="M30.06 147.9L67.02 147.9L67.02 184.86L30.06 184.86z" fill="rgba(0, 21, 255, 1)"></path>
        <path d="M261.91 538.17a17.18 17.18 0 1 0 3.39-34.19z" stroke="rgba(0, 21, 255, 1)"></path>
        <path d="M258.27 556.68a11.98 11.98 0 1 0-18-15.82z" stroke="rgba(0, 3, 40, 1)"></path>
        <path d="M9.25 454.52L18.72 454.52L18.72 463.99L9.25 463.99z" fill="rgba(0, 0, 0, 1)"></path>
        <path d="M1192.98 126.43a12.43 12.43 0 1 0 14.92-19.88z" stroke="#e73635"></path>
        <path d="M784.37 219.68L813.07 219.68L813.07 248.38L784.37 248.38z" fill="#e73635"></path>
        <path d="M1252.88 69.26L1304.85 69.26L1304.85 121.23L1252.88 121.23z" stroke="rgba(0, 0, 0, 1)"></path>
        <path d="M1352.52 533.59L1380.12 533.59L1380.12 561.19L1352.52 561.19z" fill="rgba(0, 3, 40, 1)"></path>
        <path d="M1012.54 463.38a19.4 19.4 0 1 0 37.14-11.2z" fill="rgba(31, 34, 73, 1)"></path>
        <path d="M385.65 486.71L438.15 486.71L438.15 539.53L385.65 539.53z" stroke="#e73635"></path>
        <path d="M654.7 428.7 a44.22 44.22 0 1 0 88.44 0 a44.22 44.22 0 1 0 -88.44 0z" fill="rgba(0, 3, 40, 1)"></path>
        <path d="M939.39 295.96L982.8 295.96L982.8 339.37L939.39 339.37z" fill="rgba(31, 34, 73, 1)"></path>
        <path d="M145.74 249.47a25.12 25.12 0 1 0 28.7-41.24z" fill="rgba(0, 21, 255, 1)"></path>
        <path d="M502.41 205.01L512.97 205.01L512.97 215.57L502.41 215.57z" stroke="rgba(31, 34, 73, 1)"></path>
        <path d="M871.68 533.91a39.23 39.23 0 1 0 74.8 23.68z" stroke="rgba(0, 0, 0, 1)"></path>
        <path d="M631.84 67.33L680.72 67.33L680.72 108.38L631.84 108.38z" stroke="rgba(31, 34, 73, 1)"></path>
        <path d="M252.16 92.58L277.64 92.58L277.64 96.01L252.16 96.01z" stroke="rgba(31, 34, 73, 1)"></path>
    </g>
    <defs>
        <mask id="SvgjsMask1218">
            <rect width="1440" height="560" fill="#ffffff"></rect>
        </mask>
        <linearGradient x1="50%" y1="100%" x2="50%" y2="0%" gradientUnits="userSpaceOnUse" id="SvgjsLinearGradient1219">
            <stop stop-color="#0e2a47" offset="0"></stop>
            <stop stop-color="rgba(0, 0, 0, 1)" offset="1"></stop>
        </linearGradient>
    </defs>
</svg>