<svg xmlns="http://www.w3.org/2000/svg" version="1.1" xmlns:xlink="http://www.w3.org/1999/xlink" xmlns:svgjs="http://svgjs.dev/svgjs" width="1440" height="560" preserveAspectRatio="none" viewBox="0 0 1440 560">
    <g mask="url(&quot;#SvgjsMask1073&quot;)" fill="none">
        <rect width="1440" height="560" x="0" y="0" fill="url(&quot;#SvgjsLinearGradient1074&quot;)"></rect>
        <path d="M992.47 326.4L1023.49 326.4L1023.49 357.42L992.47 357.42z" fill="rgba(0, 21, 255, 1)"></path>
        <path d="M905.03 19.05a7.51 7.51 0 1 0 10.13 11.09z" fill="rgba(0, 21, 255, 1)"></path>
        <path d="M540.16 41.51a25.68 25.68 0 1 0-2.75 51.29z" fill="#e73635"></path>
        <path d="M1208.85 509.8a38.13 38.13 0 1 0-54.06 53.79z" fill="rgba(31, 34, 73, 1)"></path>
        <path d="M1381.96 22.7L1434.07 22.7L1434.07 74.81L1381.96 74.81z" stroke="rgba(31, 34, 73, 1)"></path>
        <path d="M1063.46 161.92L1113.16 161.92L1113.16 211.62L1063.46 211.62z" stroke="#e73635"></path>
        <path d="M684.96 39.08L730.43 39.08L730.43 84.55L684.96 84.55z" fill="rgba(0, 21, 255, 1)"></path>
        <path d="M720.96 12.56L762.29 12.56L762.29 l20.69L720.96 20.69z" stroke="rgba(31, 34, 73, 1)"></path>
        <path d="M1236.66 461.97a21.78 21.78 0 1 0 4.2 43.36z" stroke="rgba(31, 34, 73, 1)"></path>
        <path d="M905.25 191.24 a54.82 54.82 0 1 0 109.64 0 a54.82 54.82 0 1 0 -109.64 0z" stroke="rgba(31, 34, 73, 1)"></path>
        <path d="M1383.66 522.6L1426.79 522.6L1426.79 565.73L1383.66 565.73z" stroke="#e73635"></path>
        <path d="M9.07 291.49L22.43 291.49L22.43 315.64L9.07 315.64z" fill="rgba(0, 21, 255, 1)"></path>
        <path d="M276.04 414.66a4.1 4.1 0 1 0-7.79 2.58z" stroke="#e73635"></path>
        <path d="M173.13 154.12 a41.83 41.83 0 1 0 83.66 0 a41.83 41.83 0 1 0 -83.66 0z" stroke="rgba(31, 34, 73, 1)"></path>
        <path d="M1286.41 75.51a26.02 26.02 0 1 0 27.32 44.29z" stroke="rgba(0, 21, 255, 1)"></path>
        <path d="M552.74 30.72L605.81 30.72L605.81 83.79L552.74 83.79z" stroke="rgba(0, 21, 255, 1)"></path>
        <path d="M304.63 542.49L304.7 542.49L304.7 589.95L304.63 589.95z" fill="rgba(0, 21, 255, 1)"></path>
        <path d="M294.57 386.05L330.25 386.05L330.25 434.62L294.57 434.62z" stroke="rgba(0, 21, 255, 1)"></path>
        <path d="M640.65 100.13L664.52 100.13L664.52 124L640.65 124z" stroke="rgba(31, 34, 73, 1)"></path>
        <path d="M1105.07 437.37a30.4 30.4 0 1 0-43.05-42.93z" fill="#e73635"></path>
        <path d="M1015.26 453.16a25.91 25.91 0 1 0 50.42-11.96z" stroke="rgba(31, 34, 73, 1)"></path>
        <path d="M807.6 530.79L838 530.79L838 561.19L807.6 561.19z" stroke="rgba(31, 34, 73, 1)"></path>
        <path d="M1375.76 288.61L1427.42 288.61L1427.42 306.8L1375.76 306.8z" fill="#e73635"></path>
        <path d="M1104.34 95.16 a40.23 40.23 0 1 0 80.46 0 a40.23 40.23 0 1 0 -80.46 0z" stroke="#e73635"></path>
        <path d="M314.22 518.09L334.97 518.09L334.97 531.67L314.22 531.67z" stroke="#e73635"></path>
        <path d="M218.25 369.19 a22.9 22.9 0 1 0 45.8 0 a22.9 22.9 0 1 0 -45.8 0z" stroke="rgba(31, 34, 73, 1)"></path>
        <path d="M1015.56 149.65L1021.84 149.65L1021.84 182.91L1015.56 182.91z" fill="rgba(31, 34, 73, 1)"></path>
        <path d="M847.6 497.6 a52.32 52.32 0 1 0 104.64 0 a52.32 52.32 0 1 0 -104.64 0z" stroke="rgba(31, 34, 73, 1)"></path>
        <path d="M1062.21 59.87 a16.72 16.72 0 1 0 33.44 0 a16.72 16.72 0 1 0 -33.44 0z" fill="rgba(0, 21, 255, 1)"></path>
        <path d="M978.95 213.88L986.67 213.88L986.67 221.6L978.95 221.6z" stroke="rgba(0, 21, 255, 1)"></path>
        <path d="M81.35 419.12a49.92 49.92 0 1 0-94.86 31.13z" fill="rgba(0, 21, 255, 1)"></path>
        <path d="M410.41 20.37a52.07 52.07 0 1 0 104.14-0.68z" stroke="rgba(31, 34, 73, 1)"></path>
        <path d="M59.35 303.61L96.32 303.61L96.32 340.58L59.35 340.58z" stroke="#e73635"></path>
    </g>
    <defs>
        <mask id="SvgjsMask1073">
            <rect width="1440" height="560" fill="#ffffff"></rect>
        </mask>
        <linearGradient x1="15.28%" y1="-39.29%" x2="84.72%" y2="139.29%" gradientUnits="userSpaceOnUse" id="SvgjsLinearGradient1074">
            <stop stop-color="#0e2a47" offset="0"></stop>
            <stop stop-color="rgba(1, 2, 4, 1)" offset="1"></stop>
        </linearGradient>
    </defs>
</svg>