
<?xml version="1.0" encoding="UTF-8"?>
<svg version="1.1" xmlns="http://www.w3.org/2000/svg" width="315" height="268">
<path d="M0 0 C0.94455551 -0.00945648 1.88911102 -0.01891296 2.86228943 -0.02865601 C4.38270592 -0.01954697 4.38270592 -0.01954697 5.93383789 -0.01025391 C7.50567589 -0.01455917 7.50567589 -0.01455917 9.10926819 -0.01895142 C11.32415304 -0.02099179 13.53905592 -0.01546385 15.75390625 -0.00292969 C19.14046661 0.01310769 22.52583056 -0.00277161 25.91235352 -0.02197266 C28.06535094 -0.01998991 30.21834762 -0.01614557 32.37133789 -0.01025391 C33.38292465 -0.0163266 34.39451141 -0.02239929 35.43675232 -0.02865601 C44.48590076 0.06163883 44.48590076 0.06163883 48.21899414 3.38818359 C49.80189727 5.43873414 51.1570822 7.37935224 52.49633789 9.57568359 C52.88055405 10.19008301 53.2647702 10.80448242 53.66062927 11.4375 C58.05128002 18.56402827 61.92605144 25.96328127 65.78149414 33.38818359 C67.19591959 36.09838225 68.61435164 38.80645231 70.03540039 41.51318359 C70.38468094 42.17958359 70.73396149 42.84598358 71.09382629 43.53257751 C73.36189538 47.83514947 75.73142988 52.05999677 78.17211914 56.26708984 C82.45480637 63.68943384 86.3312599 71.29706609 90.19915771 78.94177246 C96.42129084 91.22750502 102.7638646 103.3886927 109.64086914 115.32250977 C115.32379442 125.21766723 120.51409817 135.36048947 125.73168945 145.50634766 C127.89007428 149.68848399 130.0831357 153.8519576 132.28149414 158.01318359 C134.89729772 162.96746148 137.50228805 167.92685829 140.08227539 172.89990234 C145.1504013 182.66380206 150.28355314 192.37857374 155.59399414 202.01318359 C159.81259474 209.67184768 163.76113356 217.35017436 167.21899414 225.38818359 C165.27180309 228.29136425 164.18298553 229.63696472 161.21899414 231.38818359 C155.81605561 232.28715212 150.43008431 232.13500057 144.97290039 232.04443359 C143.35831916 232.03830668 141.74372731 232.03456337 140.12913513 232.03308105 C136.74371842 232.02388633 133.35925617 231.99510937 129.97412109 231.95068359 C125.67770544 231.8945279 121.38204534 231.87229868 117.08529758 231.8633194 C112.9435717 231.8528912 108.80202657 231.82388646 104.66040039 231.79443359 C103.89006533 231.79067215 103.11973026 231.78691071 102.32605171 231.78303528 C74.6098593 231.60841631 74.6098593 231.60841631 68.14086914 227.00146484 C64.01271911 222.66374398 61.82318156 216.99836315 59.46899414 211.57568359 C58.54597536 209.48172777 57.61412281 207.3916364 56.67211914 205.30615234 C56.27154297 204.38600342 55.8709668 203.46585449 55.45825195 202.51782227 C54.34350173 200.06251251 54.34350173 200.06251251 51.21899414 199.38818359 C35.39893001 197.78930654 19.34047768 198.13412429 3.45532227 198.09301758 C-0.42268489 198.08178952 -4.30014381 198.04711217 -8.17795372 198.00784588 C-11.18737876 197.98176636 -14.19666772 197.97333547 -17.20619583 197.9697361 C-18.6375478 197.96487797 -20.068894 197.95328595 -21.50013351 197.9346981 C-23.48733426 197.91041055 -25.47481421 197.9136812 -27.4621582 197.91821289 C-29.15276871 197.90941353 -29.15276871 197.90941353 -30.87753296 197.9004364 C-34.46447523 198.50299791 -35.55860772 199.56583859 -37.78100586 202.38818359 C-39.07266787 204.79928602 -40.2376634 207.14718318 -41.34350586 209.63818359 C-41.80454712 210.64353149 -41.80454712 210.64353149 -42.27490234 211.66918945 C-43.80918679 215.05266233 -45.19033354 218.41566131 -46.34350586 221.95068359 C-48.09697986 226.1437736 -49.85608979 229.07336645 -53.78100586 231.38818359 C-58.43542381 232.28154963 -63.02646488 232.20506991 -67.75366211 232.14990234 C-69.12316726 232.15140638 -70.49267152 232.15484037 -71.86216736 232.16011047 C-74.72463059 232.16443127 -77.58596302 232.14768624 -80.44824219 232.11547852 C-84.10945487 232.07565726 -87.76855304 232.08501763 -91.42983341 232.10971355 C-94.25505285 232.12392287 -97.07978158 232.11379053 -99.90496635 232.09620094 C-101.90847731 232.08754358 -103.91204135 232.09789746 -105.9155426 232.10856628 C-114.80458967 231.97038887 -114.80458967 231.97038887 -119.20849609 229.34448242 C-121.30508691 225.40291773 -120.9867908 222.52734189 -119.78100586 218.38818359 C-118.76688434 215.82529402 -117.73563692 213.48008765 -116.49194336 211.04052734 C-116.15640442 210.35847733 -115.82086548 209.67642731 -115.47515869 208.97370911 C-114.37944416 206.75223363 -113.26775252 204.53917244 -112.15600586 202.32568359 C-111.3896047 200.77780641 -110.6244843 199.22929448 -109.8605957 197.68017578 C-108.28877126 194.49497163 -106.71165133 191.31247714 -105.13061523 188.13183594 C-101.83506263 181.49166753 -98.60300993 174.82091973 -95.37750244 168.14651489 C-94.42635089 166.18024196 -93.47195043 164.2155759 -92.5168457 162.2512207 C-91.93032889 161.04171081 -91.34389835 159.83215907 -90.75756836 158.62255859 C-90.25306152 157.58325195 -89.74855469 156.54394531 -89.22875977 155.47314453 C-87.66599565 152.14311294 -86.22406246 148.77158436 -84.78100586 145.38818359 C-84.06124072 143.82851184 -83.33188806 142.27320007 -82.58959961 140.72412109 C-82.20223633 139.91201172 -81.81487305 139.09990234 -81.41577148 138.26318359 C-80.6138222 136.58864022 -79.81173761 134.91416165 -79.00952148 133.23974609 C-77.14477712 129.32969781 -75.31247281 125.44450147 -73.78100586 121.38818359 C-73.12100586 121.38818359 -72.46100586 121.38818359 -71.78100586 121.38818359 C-71.61084961 120.74751953 -71.44069336 120.10685547 -71.26538086 119.44677734 C-71.02303711 118.58181641 -70.78069336 117.71685547 -70.53100586 116.82568359 C-70.29897461 115.97876953 -70.06694336 115.13185547 -69.82788086 114.25927734 C-68.79443527 111.42501425 -67.45271309 108.97092212 -65.91821289 106.38061523 C-64.64602574 104.1516931 -63.50802703 101.8802107 -62.37866211 99.57568359 C-61.96293945 98.72748047 -61.5472168 97.87927734 -61.11889648 97.00537109 C-60.26938429 95.26211484 -59.42302179 93.51732014 -58.57983398 91.77099609 C-52.07176468 78.533563 -52.07176468 78.533563 -47.78100586 76.38818359 C-44.8822428 76.28865364 -42.00809076 76.2484066 -39.10913086 76.25537109 C-38.23512634 76.25441437 -37.36112183 76.25345764 -36.46063232 76.25247192 C-34.60111418 76.25178996 -32.74159368 76.25364534 -30.88208008 76.2578125 C-28.08400849 76.26308374 -25.28610316 76.25790857 -22.48803711 76.25146484 C-17.251318 76.24784203 -12.01685352 76.29255772 -6.78100586 76.38818359 C-6.045354 76.40143677 -5.30970215 76.41468994 -4.55175781 76.42834473 C-2.6013604 76.47581774 -0.65194234 76.5596069 1.29711914 76.64599609 C2.35833984 76.69127441 3.41956055 76.73655273 4.51293945 76.78320312 C7.91036595 77.54275048 9.17880649 78.5900722 11.21899414 81.38818359 C12.25877566 88.70233704 8.75956286 96.72302159 6.40649414 103.51318359 C6.06295898 104.54572266 5.71942383 105.57826172 5.36547852 106.64208984 C3.63779041 111.73115236 1.7426629 116.48415024 -0.77197266 121.22753906 C-2.892735 125.76873112 -4.28460009 130.61242048 -5.78100586 135.38818359 C-4.57565186 135.43305908 -3.37029785 135.47793457 -2.12841797 135.52416992 C2.36552149 135.69507847 6.85856696 135.88384881 11.3515625 136.07788086 C13.29212099 136.15921582 15.2328859 136.23577756 17.17382812 136.30737305 C19.97212232 136.41143887 22.76921198 136.53294503 25.56665039 136.65771484 C26.42734634 136.68597855 27.2880423 136.71424225 28.17481995 136.74336243 C34.08177948 137.03006086 39.53917456 137.78612664 43.96899414 142.08740234 C47.3652266 147.48953459 49.9830568 153.12988819 52.45751953 158.9987793 C54.95775927 164.91566754 57.77595308 170.63337161 60.73022461 176.33569336 C63.21899414 181.18675802 63.21899414 181.18675802 63.21899414 183.38818359 C66.84899414 183.38818359 70.47899414 183.38818359 74.21899414 183.38818359 C64.57016223 162.12566673 54.22937585 141.23429977 43.72338867 120.38330078 C38.05963507 109.13289703 32.48727215 97.85014497 27.08113098 86.473526 C23.40366961 78.74256293 19.60822113 71.07696277 15.75109863 63.43435669 C8.72521055 49.50535698 1.82955918 35.51997386 -4.78100586 21.38818359 C-5.47504517 19.93968018 -5.47504517 19.93968018 -6.18310547 18.46191406 C-6.87158569 17.00035889 -6.87158569 17.00035889 -7.57397461 15.50927734 C-7.99445068 14.62554443 -8.41492676 13.74181152 -8.84814453 12.83129883 C-10.27238346 9.10129124 -10.1097149 7.13983266 -8.78100586 3.38818359 C-5.89253515 0.6702419 -3.92623334 0.01130744 0 0 Z M-5.78100586 5.38818359 C0.58441169 19.88520909 7.44931344 34.07348609 14.59399414 48.20068359 C16.54228217 52.05986761 18.48768759 55.92048544 20.42993164 59.78271484 C20.91173889 60.74074005 21.39354614 61.69876526 21.88995361 62.68582153 C25.72265144 70.33538091 29.41999264 78.04487558 33.09176636 85.7726593 C38.14770456 96.38798646 43.43098506 106.88707146 48.71899414 117.38818359 C55.06105192 129.98246224 61.31812018 142.60640396 67.37617493 155.34010315 C70.96570549 162.88095111 74.64771573 170.36778992 78.40649414 177.82568359 C78.9769043 178.96199219 79.54731445 180.09830078 80.13500977 181.26904297 C81.49439883 183.97639767 82.85637938 186.68245095 84.21899414 189.38818359 C75.96899414 189.05818359 67.71899414 188.72818359 59.21899414 188.38818359 C57.79584841 185.22088182 56.37287876 182.05352565 54.9519043 178.88525391 C53.75411361 176.2159482 52.55144695 173.5489122 51.34545898 170.88330078 C46.27103856 159.64199983 46.27103856 159.64199983 44.04321289 153.93505859 C43.74616455 153.18933594 43.44911621 152.44361328 43.14306641 151.67529297 C42.39980623 149.78046777 41.68702903 147.87376302 40.97680664 145.96630859 C39.44433171 143.08077071 39.44433171 143.08077071 36.26708984 142.76049805 C31.42436984 142.23355425 26.55678455 142.05101212 21.69165039 141.85302734 C20.702733 141.8100502 19.71381561 141.76707306 18.69493103 141.72279358 C15.55724807 141.5871763 12.41938641 141.45635891 9.28149414 141.32568359 C7.14541281 141.23420433 5.00934491 141.1424108 2.87329102 141.05029297 C-2.34465795 140.82595205 -7.56276173 140.60554453 -12.78100586 140.38818359 C-12.13133193 135.0302529 -10.42956292 130.36927684 -8.50756836 125.36865234 C-8.18315765 124.51064529 -7.85874695 123.65263824 -7.52450562 122.76863098 C-6.49019828 120.0356454 -5.448485 117.30556132 -4.40600586 114.57568359 C-3.37197676 111.85604211 -2.33955607 109.1358039 -1.30892944 106.41487122 C-0.66896596 104.72658068 -0.02687335 103.03909502 0.61776733 101.35258484 C4.56158677 92.10989239 4.56158677 92.10989239 6.21899414 82.38818359 C2.83239222 81.62565701 -0.28611157 81.26550577 -3.75488281 81.2746582 C-4.71550125 81.27473373 -5.67611969 81.27480927 -6.66584778 81.27488708 C-8.20205025 81.28262901 -8.20205025 81.28262901 -9.76928711 81.29052734 C-10.82762253 81.29194229 -11.88595795 81.29335724 -12.97636414 81.29481506 C-16.34877374 81.300402 -19.72111639 81.31295216 -23.09350586 81.32568359 C-25.38321844 81.33070028 -27.67293206 81.33526289 -29.96264648 81.33935547 C-35.56878903 81.35036716 -41.17489266 81.36709234 -46.78100586 81.38818359 C-52.55167935 91.85476331 -57.7761959 102.53790362 -62.89868164 113.33447266 C-65.71026518 119.25684321 -68.57771109 125.15065132 -71.46459961 131.03662109 C-71.93395432 131.99390106 -72.40330902 132.95118103 -72.8868866 133.93746948 C-73.84241611 135.88532789 -74.79826395 137.83303017 -75.75442505 139.78057861 C-83.23133897 155.01244324 -90.68961652 170.2513894 -97.99194336 185.56787109 C-99.83469068 189.42880073 -101.6996382 193.27814414 -103.57954407 197.12106323 C-104.89134964 199.80279273 -106.19915059 202.48646852 -107.50704956 205.17010498 C-108.140008 206.46575614 -108.77498668 207.76042263 -109.41213989 209.05401611 C-110.29418953 210.84515139 -111.16861267 212.64003619 -112.04272461 214.43505859 C-112.54763428 215.46469727 -113.05254395 216.49433594 -113.57275391 217.55517578 C-114.69942667 220.19690355 -115.34382941 222.55935661 -115.78100586 225.38818359 C-112.14624285 226.22411258 -108.79909805 226.5101206 -105.07275391 226.50170898 C-103.95196945 226.50163345 -102.831185 226.50155792 -101.67643738 226.5014801 C-99.87774956 226.49373817 -99.87774956 226.49373817 -98.04272461 226.48583984 C-96.80682083 226.4844249 -95.57091705 226.48300995 -94.29756165 226.48155212 C-91.02442241 226.47690978 -87.75133299 226.4679367 -84.47821045 226.45684814 C-81.13318338 226.44658764 -77.78815413 226.4421299 -74.44311523 226.43701172 C-67.88905936 226.42599266 -61.33503668 226.40926195 -54.78100586 226.38818359 C-52.94629628 222.17135679 -51.1132499 217.95381247 -49.28173828 213.7355957 C-48.65849693 212.30082698 -48.03480226 210.86625508 -47.41064453 209.43188477 C-46.5133722 207.36965742 -45.61773465 205.30672681 -44.72241211 203.24365234 C-44.44321426 202.60292282 -44.16401642 201.9621933 -43.87635803 201.30204773 C-42.74147008 198.68330362 -41.68419842 196.09776127 -40.78100586 193.38818359 C-33.49434622 192.72251811 -26.25412198 192.30183738 -18.93725586 192.32568359 C-17.75301277 192.32767761 -17.75301277 192.32767761 -16.54484558 192.32971191 C-2.83503962 192.3797168 10.87429096 192.63572032 24.58227539 192.85174561 C28.4982746 192.91313877 32.4142995 192.97284696 36.33032227 193.03271484 C43.95990504 193.14959477 51.58945817 193.26828311 59.21899414 193.38818359 C59.40718719 193.97224976 59.59538025 194.55631592 59.78927612 195.15808105 C61.22703124 199.55634549 62.73813428 203.83078493 64.66430664 208.04443359 C65.10129883 209.00349609 65.53829102 209.96255859 65.98852539 210.95068359 C66.43583008 211.92005859 66.88313477 212.88943359 67.34399414 213.88818359 C67.7990332 214.88849609 68.25407227 215.88880859 68.72290039 216.91943359 C70.50845237 221.45216185 70.50845237 221.45216185 73.21899414 225.38818359 C74.99513839 225.54744774 76.77744704 225.6384386 78.55957031 225.70239258 C80.27530998 225.76487938 80.27530998 225.76487938 82.02571106 225.82862854 C83.27929916 225.86761765 84.53288727 225.90660675 85.82446289 225.94677734 C87.121436 225.98902939 88.41840912 226.03128143 89.75468445 226.07481384 C104.3453871 226.52349098 118.93516828 226.49889832 133.53149414 226.45068359 C136.24177911 226.4450545 138.95206572 226.44101799 141.66235352 226.43701172 C148.18125467 226.42619959 154.70011975 226.40963702 161.21899414 226.38818359 C159.97532714 222.41832303 158.52785375 218.79225288 156.60180664 215.10693359 C156.08352295 214.11161621 155.56523926 213.11629883 155.03125 212.09082031 C154.47445557 211.0339502 153.91766113 209.97708008 153.34399414 208.88818359 C152.76464111 207.78104004 152.18528809 206.67389648 151.58837891 205.53320312 C147.36726607 197.49512045 143.04391102 189.51613787 138.6706543 181.56005859 C134.57510895 174.09258149 130.63488688 166.55037763 126.71655273 158.98876953 C123.31941004 152.45078889 119.83108196 145.96952049 116.28149414 139.51318359 C111.40872973 130.64781379 106.71978503 121.69702947 102.0769043 112.70947266 C98.04799154 104.93074771 93.88846783 97.23236408 89.66821289 89.55615234 C85.5740408 82.08967536 81.63418254 74.5490184 77.71655273 66.98876953 C73.84917466 59.54579604 69.85060657 52.18182233 65.80688477 44.83349609 C61.25320538 36.52586607 56.89313959 28.12157759 52.58251953 19.68554688 C51.81476196 18.1925708 51.81476196 18.1925708 51.03149414 16.66943359 C50.58418945 15.79351562 50.13688477 14.91759766 49.67602539 14.01513672 C49.19520508 13.14824219 48.71438477 12.28134766 48.21899414 11.38818359 C47.73462891 10.30134277 47.25026367 9.21450195 46.7512207 8.09472656 C43.84179479 4.98501814 43.24419676 4.95129546 39.17504883 4.70703125 C37.08008205 4.70797996 34.98496425 4.74181116 32.89086914 4.80224609 C31.23465546 4.81498062 31.23465546 4.81498062 29.54498291 4.82797241 C26.01866044 4.86155733 22.4946253 4.93685253 18.96899414 5.01318359 C16.57840216 5.04327632 14.18777434 5.07065332 11.79711914 5.09521484 C5.93696383 5.16136534 0.07814237 5.26176634 -5.78100586 5.38818359 Z " fill="#000000" transform="translate(138.781005859375,25.61181640625)"/>
<path d="M0 0 C2.71656346 2.42339826 4.23567083 5.0012576 5.93359375 8.20703125 C6.49385254 9.25721436 7.05411133 10.30739746 7.63134766 11.3894043 C8.52539307 13.08383667 8.52539307 13.08383667 9.4375 14.8125 C10.38298118 16.59020576 11.3303464 18.36689931 12.277771 20.14356995 C12.92020903 21.34866686 13.5620101 22.55410355 14.20318604 23.75987244 C17.1305434 29.26159331 20.12377663 34.7258638 23.125 40.1875 C27.69837696 48.53378042 32.12382024 56.94997774 36.50268555 65.3996582 C39.89956944 71.93765151 43.3879652 78.41875954 46.9375 84.875 C51.81184127 93.7432387 56.50242444 102.6968644 61.14648438 111.6875 C64.65714257 118.46612488 68.2560813 125.18774209 71.9375 131.875 C76.41982974 140.01928612 80.74232959 148.23613767 85 156.5 C89.34317784 164.92869944 93.75207206 173.31168932 98.3125 181.625 C98.79879883 182.51155273 99.28509766 183.39810547 99.78613281 184.31152344 C100.26018555 185.17551758 100.73423828 186.03951172 101.22265625 186.9296875 C103.92521099 191.85560053 106.60235495 196.79435568 109.25 201.75 C109.63325439 202.45979004 110.01650879 203.16958008 110.41137695 203.90087891 C113 208.7675145 113 208.7675145 113 211 C85.94 211 58.88 211 31 211 C18.89090909 185.43636364 18.89090909 185.43636364 20 181 C32.375 180.505 32.375 180.505 45 180 C44.11699219 178.24558594 43.23398438 176.49117187 42.32421875 174.68359375 C41.42359094 172.88931974 40.52298183 171.09503629 39.62280273 169.30053711 C38.73116191 167.52447052 37.83731711 165.74951091 36.94335938 163.97460938 C33.19882896 156.51679261 29.56824179 149.01081314 25.98828125 141.47265625 C21.60641045 132.26251081 17.10082833 123.11799805 12.53125 114 C12.20579004 113.35051455 11.88033009 112.70102909 11.54500771 112.03186226 C9.19954405 107.35313126 6.85018717 102.67635968 4.5 98 C0.22348536 89.49066896 -4.04751508 80.97885619 -8.28271484 72.4488678 C-10.32643194 68.33716037 -12.40274062 64.24305161 -14.48828125 60.15234375 C-15.52440116 58.08121098 -16.55961553 56.00962484 -17.59375 53.9375 C-18.07557739 53.01001953 -18.55740479 52.08253906 -19.05383301 51.12695312 C-22.13751393 44.86490784 -22.13751393 44.86490784 -21.49755859 40.83984375 C-20.75626709 39.43412109 -20.75626709 39.43412109 -20 38 C-19.19199951 36.25589844 -19.19199951 36.25589844 -18.36767578 34.4765625 C-17.73120515 33.19056265 -17.09020248 31.9067985 -16.4453125 30.625 C-16.10249237 29.93744629 -15.75967224 29.24989258 -15.40646362 28.54150391 C-14.68391146 27.09504507 -13.95935854 25.64958411 -13.23291016 24.20507812 C-12.12974848 22.00945093 -11.03517499 19.8096936 -9.94140625 17.609375 C-9.23488773 16.19765994 -8.52787277 14.78619321 -7.8203125 13.375 C-7.49725128 12.7248291 -7.17419006 12.0746582 -6.84133911 11.40478516 C-4.80964783 7.38224914 -2.56222155 3.69380428 0 0 Z M0 14 C-3.84308656 20.13386756 -7.43884497 26.41463466 -10.9375 32.75 C-11.3512085 33.47050537 -11.76491699 34.19101074 -12.19116211 34.93334961 C-12.75975952 35.97954468 -12.75975952 35.97954468 -13.33984375 37.046875 C-13.68394287 37.66401367 -14.02804199 38.28115234 -14.38256836 38.91699219 C-15.7789588 43.6279464 -13.77069445 47.96109901 -11.69921875 52.17578125 C-11.22339355 53.15458252 -10.74756836 54.13338379 -10.25732422 55.1418457 C-9.73928223 56.18816162 -9.22124023 57.23447754 -8.6875 58.3125 C-7.5791307 60.58318869 -6.47106566 62.85402591 -5.36328125 65.125 C-4.79818848 66.27742188 -4.2330957 67.42984375 -3.65087891 68.6171875 C-2.13867924 71.71583266 -0.64723816 74.82302829 0.83203125 77.9375 C6.75780558 90.41144263 12.86859423 102.78270135 19.0625 115.125 C25.41634859 127.78986998 31.72514343 140.46856486 37.73242188 153.30273438 C38.62794122 155.20830019 39.53102299 157.11032079 40.43945312 159.00976562 C41.88967537 162.0420485 43.32170029 165.08234046 44.75 168.125 C45.1934375 169.04458496 45.636875 169.96416992 46.09375 170.91162109 C46.68929687 172.19673584 46.68929687 172.19673584 47.296875 173.5078125 C47.65104492 174.25691895 48.00521484 175.00602539 48.37011719 175.77783203 C49.15363295 178.54200276 48.83666862 180.27445347 48 183 C44.68336513 185.61061853 40.32429183 185.65518563 36.25 186.125 C35.55261719 186.21136719 34.85523438 186.29773438 34.13671875 186.38671875 C32.42527668 186.59771846 30.71273371 186.79975501 29 187 C27.8207074 189.8620259 27.98046824 190.94708669 29.07421875 193.91015625 C29.60660156 194.95042969 30.13898438 195.99070313 30.6875 197.0625 C31.46673828 198.62677734 31.46673828 198.62677734 32.26171875 200.22265625 C34.05076625 203.08111192 35.12698802 204.30691347 38 206 C40.98730068 206.43373005 40.98730068 206.43373005 44.32910156 206.34057617 C46.25064056 206.34023628 46.25064056 206.34023628 48.21099854 206.33988953 C49.60421093 206.32457074 50.99741974 206.30892278 52.390625 206.29296875 C53.81979934 206.28737097 55.24897946 206.28310173 56.67816162 206.28010559 C60.4331461 206.26867101 64.18778046 206.2392162 67.94262695 206.20599365 C71.77680729 206.1752626 75.61104441 206.1615938 79.4453125 206.14648438 C86.96370099 206.1143448 94.48180137 206.0631657 102 206 C102.33 205.34 102.66 204.68 103 204 C101.91640134 201.28197337 100.76989216 198.69244751 99.5 196.0625 C98.94469604 194.89581787 98.94469604 194.89581787 98.37817383 193.70556641 C96.37526787 189.57620834 94.27080155 185.67767016 91.6875 181.875 C88.14114955 176.57152116 85.50957642 170.95171902 82.8125 165.1875 C78.80287474 156.63861169 74.54917731 148.30409052 69.97387695 140.0456543 C65.20285509 131.42242362 60.59615982 122.7171794 56 114 C50.8930962 104.32081911 45.76366131 94.65771594 40.5 85.0625 C34.19567907 73.56882841 28.09559074 61.9739895 22.0625 50.3359375 C17.25316314 41.06436106 12.42672005 31.80133562 7.4375 22.625 C7.03208984 21.86372803 6.62667969 21.10245605 6.20898438 20.31811523 C4.05763252 16.10933049 4.05763252 16.10933049 0 14 Z " fill="#000000" transform="translate(182,37)"/>
<path d="M0 0 C6.01399436 -0.02477561 12.02795881 -0.04289587 18.04199219 -0.05493164 C20.08659381 -0.05995086 22.13119186 -0.06676762 24.17578125 -0.07543945 C27.11980065 -0.08761074 30.06377247 -0.09325252 33.0078125 -0.09765625 C34.3722197 -0.10539818 34.3722197 -0.10539818 35.76419067 -0.11329651 C40.29451709 -0.11369419 44.54141867 0.073 49 1 C46.95471258 8.21291693 44.50752911 15.19684439 41.8046875 22.1875 C41.41177521 23.21182129 41.01886292 24.23614258 40.61404419 25.29150391 C39.79045299 27.43668693 38.96514363 29.58121105 38.13818359 31.72509766 C36.86838504 35.01714981 35.60366499 38.31111783 34.33984375 41.60546875 C33.53674869 43.6954241 32.73337339 45.78527178 31.9296875 47.875 C31.55053192 48.86137451 31.17137634 49.84774902 30.7807312 50.86401367 C30.43011627 51.77256104 30.07950134 52.6811084 29.71826172 53.6171875 C29.40976288 54.41753418 29.10126404 55.21788086 28.78341675 56.04248047 C28 58 28 58 27 60 C27.68698975 59.99476318 28.37397949 59.98952637 29.08178711 59.98413086 C42.0184855 59.8994231 54.94470679 59.92155885 67.875 60.375 C69.44109009 60.4212854 69.44109009 60.4212854 71.03881836 60.46850586 C72.01343018 60.5072583 72.98804199 60.54601074 73.9921875 60.5859375 C74.84151855 60.6173584 75.69084961 60.6487793 76.56591797 60.68115234 C79.54535935 61.07143825 81.40002819 61.43245431 84 63 C85.67509913 65.47709131 86.79416718 68.14566929 87.953125 70.89453125 C88.29881531 71.6789006 88.64450562 72.46326996 89.00067139 73.27140808 C89.72788366 74.92979851 90.44688246 76.59181151 91.15820312 78.25708008 C92.24452421 80.79968357 93.35412558 83.33102238 94.46875 85.86132812 C95.17326006 87.47595887 95.87642997 89.09117515 96.578125 90.70703125 C96.90725891 91.46240677 97.23639282 92.21778229 97.57550049 92.99604797 C99.13099109 96.64754646 100.42829233 100.04048538 101 104 C96.98407157 105.33864281 93.12525716 105.13067772 88.9387207 105.11352539 C88.01169342 105.11367142 87.08466614 105.11381744 86.12954712 105.1139679 C83.06160146 105.11327054 79.99371632 105.10548637 76.92578125 105.09765625 C74.8001458 105.09579144 72.67450993 105.09436784 70.5488739 105.09336853 C64.95110897 105.08954829 59.35336993 105.07972219 53.75561523 105.06866455 C48.04476268 105.05843984 42.33390594 105.05386863 36.62304688 105.04882812 C25.4153532 105.03809951 14.20767875 105.02102897 3 105 C2.01 107.97 1.02 110.94 0 114 C-3.3 121.92 -6.6 129.84 -10 138 C-28.48 138 -46.96 138 -66 138 C-64.55742377 133.6722713 -63.16479813 130.1016958 -61.12890625 126.09765625 C-60.56083252 124.97319092 -59.99275879 123.84872559 -59.4074707 122.69018555 C-59.10716949 122.0999057 -58.80686829 121.50962585 -58.49746704 120.90145874 C-56.88948047 117.738758 -55.29638377 114.56857675 -53.703125 111.3984375 C-53.38241531 110.76074936 -53.06170563 110.12306122 -52.73127747 109.46604919 C-50.02366928 104.07144725 -47.39838447 98.64126343 -44.8125 93.1875 C-39.78299838 82.58828033 -34.64606966 72.04293943 -29.5 61.5 C-19.52878226 41.06438531 -9.73067782 20.55113445 0 0 Z M1 10 C-0.39835435 12.14166452 -0.39835435 12.14166452 -1.375 14.56640625 C-2.00063843 15.97442505 -2.00063843 15.97442505 -2.63891602 17.41088867 C-3.08807373 18.45092041 -3.53723145 19.49095215 -4 20.5625 C-5.04585943 22.9060219 -6.09565704 25.24731789 -7.15234375 27.5859375 C-7.44197495 28.2288121 -7.73160614 28.87168671 -8.03001404 29.53404236 C-12.33097143 39.01816304 -16.97297988 48.34081065 -21.5625 57.6875 C-23.39781092 61.4319608 -25.23203865 65.17695201 -27.06640625 68.921875 C-27.50369049 69.81417816 -27.94097473 70.70648132 -28.39151001 71.62582397 C-33.33452018 81.71585882 -38.21356547 91.83463957 -43 102 C-43.56251465 103.19334961 -44.1250293 104.38669922 -44.70458984 105.61621094 C-46.2372414 108.87102278 -47.76416156 112.12847696 -49.28735352 115.38772583 C-49.88256375 116.66045788 -50.47889947 117.93266426 -51.07641602 119.20431519 C-51.90242426 120.9638471 -52.72282961 122.72600602 -53.54296875 124.48828125 C-54.01758545 125.50446533 -54.49220215 126.52064941 -54.98120117 127.56762695 C-56.12877681 129.86793387 -56.12877681 129.86793387 -56 132 C-51.14313655 134.42843172 -43.71670825 133.31257287 -38.31567383 133.35009766 C-36.56879344 133.36664961 -34.82198057 133.39392995 -33.07543945 133.43212891 C-30.55384274 133.48698252 -28.03383225 133.50878326 -25.51171875 133.5234375 C-24.73446945 133.54610687 -23.95722015 133.56877625 -23.15641785 133.59213257 C-19.22654235 133.57687196 -17.27526423 133.21188394 -14.12866211 130.78979492 C-12.12931432 128.16947755 -10.7262054 125.85862272 -9.4296875 122.83984375 C-9.00816406 121.88142578 -8.58664063 120.92300781 -8.15234375 119.93554688 C-7.73082031 118.94619141 -7.30929688 117.95683594 -6.875 116.9375 C-6.02272662 114.96549808 -5.16611127 112.99536574 -4.3046875 111.02734375 C-3.93327637 110.15843506 -3.56186523 109.28952637 -3.17919922 108.39428711 C-0.24664258 102.4399221 -0.24664258 102.4399221 2.69297791 101.40257263 C5.65761248 100.8852474 8.50799798 100.8429017 11.51831055 100.81054688 C12.48772079 100.79810692 12.48772079 100.79810692 13.47671509 100.78541565 C14.87839536 100.76805047 16.28010409 100.75287408 17.68182945 100.73963928 C19.91741944 100.71845914 22.15287368 100.69143654 24.38838196 100.66296387 C29.15470027 100.60335945 33.92108698 100.55137466 38.6875 100.5 C44.17248488 100.44025284 49.65740713 100.37722887 55.14228249 100.30812073 C57.31364 100.28212491 59.48500569 100.2609492 61.65641785 100.2401123 C71.4611126 100.12901212 81.21686466 99.65184392 91 99 C92.3042719 94.77220708 91.34346169 92.77782985 89.5078125 88.73828125 C88.96769531 87.53751953 88.42757812 86.33675781 87.87109375 85.09960938 C87.28910708 83.83721903 86.70707529 82.57484949 86.125 81.3125 C85.54976954 80.03886791 84.97553904 78.76478369 84.40234375 77.49023438 C82.26246725 71.88824702 82.26246725 71.88824702 79 67 C77.5959213 66.85899396 76.18521135 66.78307743 74.77490234 66.73461914 C73.87661713 66.70110855 72.97833191 66.66759796 72.05282593 66.6330719 C71.07375275 66.60075974 70.09467957 66.56844757 69.0859375 66.53515625 C67.02473179 66.45658436 64.96353411 66.37780151 62.90234375 66.29882812 C59.64381787 66.17949423 56.38523702 66.06285313 53.12646484 65.95043945 C49.98762823 65.84033417 46.84933395 65.71958576 43.7109375 65.59765625 C42.26054581 65.55222435 42.26054581 65.55222435 40.78085327 65.50587463 C35.54692577 65.2966612 30.90553921 64.90897036 26 63 C23.18159374 58.77239061 24.0435059 55.83798133 25 51 C25.87233392 47.93528025 26.97033479 44.98794273 28.125 42.01953125 C28.43195801 41.20304611 28.73891602 40.38656097 29.05517578 39.54533386 C30.02701133 36.9638957 31.01243187 34.38795593 32 31.8125 C32.98580347 29.22573048 33.968476 26.63788484 34.94482422 24.04753113 C35.54992773 22.44365942 36.16063916 20.84188848 36.77783203 19.24263 C38.32208239 15.16558783 39.46110575 11.35735728 40 7 C35.51929752 4.75964876 29.43447387 5.7314265 24.4519043 5.70483398 C22.20624427 5.68764349 19.96206567 5.64376 17.71679688 5.59960938 C16.28386497 5.58947999 14.85092057 5.58096465 13.41796875 5.57421875 C12.11625732 5.55963623 10.8145459 5.54505371 9.47338867 5.5300293 C5.38873421 6.08270799 3.84221464 7.06155215 1 10 Z " fill="#000000" transform="translate(93,110)"/>
<path d="M0 0 C0.73997726 -0.00095673 1.47995453 -0.00191345 2.24235535 -0.00289917 C3.81008997 -0.00358023 5.37782742 -0.00173107 6.94555664 0.00244141 C9.33551453 0.00776803 11.72528253 0.00250576 14.11523438 -0.00390625 C15.63932333 -0.00324501 17.16341217 -0.0019629 18.6875 0 C19.39912796 -0.00202423 20.11075592 -0.00404846 20.84394836 -0.00613403 C24.5357114 0.01113486 27.95290974 0.25416639 31.54296875 1.1328125 C29.20249197 8.97049451 25.79945421 16.03552553 22.10546875 23.3203125 C21.53248047 24.46951172 20.95949219 25.61871094 20.36914062 26.80273438 C17.6899246 32.1272523 15.0385967 37.29733698 11.54296875 42.1328125 C8.27049484 39.40249377 6.66797687 35.79795447 4.8203125 32.05078125 C4.47416397 31.3589827 4.12801544 30.66718414 3.77137756 29.954422 C3.04156132 28.49245303 2.31469144 27.02901002 1.59057617 25.56420898 C0.48783067 23.33519339 -0.62541204 21.11166751 -1.74023438 18.88867188 C-2.44985204 17.4638569 -3.15885649 16.03873631 -3.8671875 14.61328125 C-4.19743423 13.95369919 -4.52768097 13.29411713 -4.86793518 12.61454773 C-6.71694013 8.859775 -8.23138984 5.13456835 -9.45703125 1.1328125 C-6.43610717 -0.37764954 -3.31252875 -0.00934279 0 0 Z M0.54296875 6.1328125 C1.09557138 10.99571561 2.54218887 14.58318309 4.85546875 18.8828125 C5.44972656 20.01203125 6.04398438 21.14125 6.65625 22.3046875 C8.5050717 25.07600615 9.45301004 26.06872076 12.54296875 27.1328125 C13.67228496 25.23954709 14.79624491 23.3430861 15.91796875 21.4453125 C16.85769531 19.86169922 16.85769531 19.86169922 17.81640625 18.24609375 C20.22531981 13.9024193 21.54296875 11.14259382 21.54296875 6.1328125 C14.36246691 5.42132985 7.67268024 4.87462812 0.54296875 6.1328125 Z " fill="#000000" transform="translate(147.45703125,33.8671875)"/>
</svg>
