
<?xml version="1.0" standalone="no"?>
<!DOCTYPE svg PUBLIC "-//W3C//DTD SVG 20010904//EN"
 "http://www.w3.org/TR/2001/REC-SVG-20010904/DTD/svg10.dtd">
<svg version="1.0" xmlns="http://www.w3.org/2000/svg"
 width="252.000000pt" height="214.000000pt" viewBox="0 0 252.000000 214.000000"
 preserveAspectRatio="xMidYMid meet">
<metadata>
Created by potrace 1.10, written by Peter Selinger 2001-2011
</metadata>
<g transform="translate(0.000000,214.000000) scale(0.100000,-0.100000)"
fill="#fff" stroke="none">
<path d="M1094 1932 c-33 -6 -65 -43 -58 -66 4 -12 64 -138 134 -281 70 -143
191 -390 270 -550 78 -159 171 -347 206 -418 35 -70 64 -134 64 -143 0 -12
-10 -14 -47 -12 l-48 3 -62 125 c-34 69 -62 132 -63 140 0 8 -13 33 -28 55
-33 48 -53 52 -264 55 -125 2 -138 4 -138 20 0 22 39 128 57 155 7 11 13 26
13 35 0 8 16 57 36 109 37 98 38 133 6 150 -9 5 -112 11 -229 12 -202 4 -213
3 -232 -16 -18 -18 -111 -195 -111 -210 0 -4 -10 -21 -22 -38 -13 -18 -21 -33
-19 -35 6 -5 -21 -62 -30 -62 -5 0 -9 -6 -9 -12 0 -17 -83 -192 -92 -196 -5
-2 -8 -11 -8 -19 0 -8 -13 -41 -29 -72 -43 -82 -216 -439 -235 -484 -15 -37
-15 -39 9 -63 l24 -24 240 0 239 0 31 26 c17 14 31 31 31 37 -1 28 74 188 94
200 17 12 82 13 364 9 228 -3 347 -9 356 -16 8 -6 35 -56 60 -111 67 -151 36
-141 443 -144 l340 -3 28 24 27 24 -67 130 c-37 71 -92 174 -122 229 -29 55
-70 134 -91 175 -20 41 -40 77 -43 80 -3 3 -39 70 -80 150 -41 80 -77 147 -80
150 -6 5 -98 179 -191 360 -26 52 -52 100 -57 105 -4 6 -52 94 -105 195 -54
102 -109 193 -122 203 -21 16 -48 18 -197 20 -96 1 -182 0 -193 -1z m844 -916
c260 -487 472 -887 472 -890 0 -7 -706 0 -717 7 -4 3 -33 61 -63 130 l-55 125
-300 7 c-165 3 -342 5 -393 3 l-93 -3 -57 -135 -58 -135 -252 -1 c-184 -1
-252 2 -249 10 12 30 551 1142 557 1151 12 15 440 8 440 -7 0 -9 -118 -330
-165 -450 -7 -16 2 -18 101 -19 60 -1 156 -4 213 -8 l103 -6 84 -185 83 -185
96 -3 c52 -1 95 -1 95 1 0 3 -138 283 -306 623 -322 652 -414 840 -414 849 0
3 91 5 203 5 l204 0 471 -884z"/>
<path d="M1110 1861 c0 -10 154 -321 159 -320 5 0 151 290 159 314 1 6 -56 10
-158 10 -88 0 -160 -2 -160 -4z m249 -48 c0 -30 -74 -168 -90 -168 -16 0 -87
130 -88 163 -1 21 2 22 89 22 79 0 90 -2 89 -17z"/>
<path d="M1370 1671 l-84 -170 114 -233 c62 -128 185 -376 272 -550 87 -175
158 -320 158 -324 0 -3 -50 -4 -110 -2 -61 2 -110 0 -110 -4 0 -3 22 -55 49
-115 l49 -108 325 -3 324 -2 -71 134 c-39 73 -240 451 -446 840 -206 388 -377
706 -380 706 -3 0 -43 -76 -90 -169z m135 14 c119 -222 174 -326 195 -370 13
-27 28 -57 35 -65 7 -8 45 -78 85 -155 40 -77 87 -167 105 -200 36 -66 87
-162 177 -329 32 -61 58 -115 58 -122 0 -7 4 -14 8 -16 15 -6 123 -218 117
-228 -6 -10 -473 -14 -524 -4 -24 5 -35 18 -61 71 -17 35 -30 70 -27 77 3 8
29 13 73 14 72 2 104 19 104 53 0 17 -64 150 -404 840 -64 130 -116 242 -116
248 0 21 123 252 133 248 5 -1 24 -30 42 -62z"/>
<path d="M718 1188 c-220 -456 -450 -933 -472 -975 l-26 -53 218 0 218 0 56
133 56 132 391 0 c215 0 391 3 391 7 0 3 -33 80 -74 170 l-74 163 -148 6 c-82
4 -183 7 -225 8 l-76 1 88 233 c49 127 89 234 89 237 0 3 -85 7 -188 8 l-189
4 -35 -74z m348 17 c4 -8 -7 -50 -24 -93 -61 -156 -112 -298 -112 -312 1 -8 9
-24 18 -36 16 -19 32 -22 137 -27 66 -4 159 -7 208 -7 l87 0 17 -37 c9 -21 34
-76 55 -122 22 -46 37 -89 34 -97 -4 -10 -73 -13 -356 -13 -295 0 -355 -2
-374 -15 -14 -9 -40 -54 -65 -114 -65 -153 -46 -141 -220 -141 -147 -1 -181 3
-181 20 0 8 38 87 215 454 200 414 245 508 245 513 0 3 7 14 17 24 14 16 33
18 155 18 114 0 140 -3 144 -15z"/>
</g>
</svg>
